<?xml version="1.0" encoding="utf-8"?>
<!-- Generator: Adobe Illustrator 16.0.0, SVG Export Plug-In . SVG Version: 6.00 Build 0)  -->
<!DOCTYPE svg PUBLIC "-//W3C//DTD SVG 1.1//EN" "http://www.w3.org/Graphics/SVG/1.1/DTD/svg11.dtd">
<svg version="1.1" id="Layer_1" xmlns="http://www.w3.org/2000/svg" xmlns:xlink="http://www.w3.org/1999/xlink" x="0px" y="0px"
	 width="1400px" height="980px" viewBox="0 0 1400 980" enable-background="new 0 0 1400 980" xml:space="preserve">
<g>
	<g>
		<rect fill="#FFFFFF" width="1400" height="980"/>
	</g>
</g>
<g>
	<path fill="#F1F2F2" d="M392.6,364.1v275.3c0,17.1,13.9,31,31,31h544.7c17.1,0,31-13.9,31-31V364.1H392.6z"/>
	<path d="M968.3,672.1H423.6c-18.1,0-32.8-14.7-32.8-32.8V364.1c0-1,0.8-1.8,1.8-1.8h606.7c1,0,1.8,0.8,1.8,1.8v275.3
		C1001.1,657.4,986.4,672.1,968.3,672.1z M394.4,365.9v273.4c0,16.1,13.1,29.2,29.2,29.2h544.7c16.1,0,29.2-13.1,29.2-29.2V365.9
		H394.4z"/>
</g>
<g>
	<g>
		<path d="M926.9,902.9c-0.4,0-0.7-0.1-1-0.3l-125.2-83c-0.5-0.3-0.8-0.9-0.8-1.5c0-0.6,0.3-1.2,0.8-1.5l125.2-83
			c0.6-0.4,1.3-0.4,1.9-0.1c0.6,0.3,1,0.9,1,1.6v166c0,0.7-0.4,1.3-1,1.6C927.5,902.8,927.2,902.9,926.9,902.9z M805,818.1
			l120.1,79.6V738.5L805,818.1z"/>
	</g>
	<g>
		<path d="M623,902.9c-0.3,0-0.6-0.1-0.9-0.2c-0.6-0.3-1-0.9-1-1.6v-166c0-0.7,0.4-1.3,1-1.6c0.6-0.3,1.3-0.3,1.9,0.1l125.2,83
			c0.5,0.3,0.8,0.9,0.8,1.5c0,0.6-0.3,1.2-0.8,1.5l-125.2,83C623.7,902.8,623.4,902.9,623,902.9z M624.8,738.5v159.3L745,818.1
			L624.8,738.5z"/>
	</g>
	<g>
		<path d="M775,837.6c-0.3,0-0.7-0.1-1-0.3L622,736.6c-0.7-0.4-1-1.3-0.7-2c0.2-0.8,0.9-1.3,1.7-1.3h303.9c0.8,0,1.5,0.5,1.7,1.3
			c0.2,0.8-0.1,1.6-0.7,2L776,837.3C775.7,837.5,775.3,837.6,775,837.6z M629,736.9L775,833.6l145.9-96.7H629z"/>
	</g>
	<g>
		<path d="M927,902.9C927,902.9,926.9,902.9,927,902.9H623c-0.8,0-1.5-0.5-1.7-1.3c-0.2-0.8,0.1-1.6,0.7-2l125.2-83
			c0.6-0.4,1.4-0.4,2,0l25.7,17l25.7-17c0.6-0.4,1.4-0.4,2,0l125,82.8c0.7,0.3,1.2,0.9,1.2,1.7C928.8,902.1,928,902.9,927,902.9z
			 M629,899.3h291.8l-119.2-79l-25.7,17c-0.6,0.4-1.4,0.4-2,0l-25.7-17L629,899.3z"/>
	</g>
</g>
<g>
	<g>
		<rect x="1088.8" y="392.4" fill="#FFFFFF" width="209.9" height="301"/>
		<path d="M1298.6,695.2h-209.9c-1,0-1.8-0.8-1.8-1.8v-301c0-1,0.8-1.8,1.8-1.8h209.9c1,0,1.8,0.8,1.8,1.8v301
			C1300.4,694.4,1299.6,695.2,1298.6,695.2z M1090.6,691.6h206.2V394.2h-206.2V691.6z"/>
	</g>
	<g>
		<path fill="#FFFFFF" d="M1298.6,374.4c0-18.3-14.8-33.1-33.1-33.1h-143.6c-18.3,0-33.1,14.8-33.1,33.1v18h209.9V374.4z"/>
		<path d="M1298.6,394.2h-209.9c-1,0-1.8-0.8-1.8-1.8v-18c0-19.3,15.7-34.9,35-34.9h143.6c19.3,0,35,15.7,35,34.9v18
			C1300.4,393.4,1299.6,394.2,1298.6,394.2z M1090.6,390.6h206.2v-16.1c0-17.3-14.1-31.3-31.3-31.3h-143.6
			c-17.3,0-31.3,14-31.3,31.3V390.6z"/>
	</g>
	<g>
		<path fill="#FFFFFF" d="M1088.8,693.4v18.4c0,18.3,14.8,33.1,33.1,33.1h143.6c18.3,0,33.1-14.8,33.1-33.1v-18.4H1088.8z"/>
		<path d="M1265.5,746.7h-143.6c-19.3,0-35-15.7-35-34.9v-18.4c0-1,0.8-1.8,1.8-1.8h209.9c1,0,1.8,0.8,1.8,1.8v18.4
			C1300.4,731,1284.7,746.7,1265.5,746.7z M1090.6,695.2v16.6c0,17.3,14.1,31.3,31.3,31.3h143.6c17.3,0,31.3-14.1,31.3-31.3v-16.6
			H1090.6z"/>
	</g>
</g>
<g>
	<path fill="#FFFFFF" d="M1226.8,719.1c0,6.5-5.3,11.7-11.7,11.7h-42.8c-6.5,0-11.8-5.3-11.8-11.7l0,0c0-6.5,5.3-11.7,11.8-11.7
		h42.8C1221.6,707.4,1226.8,712.6,1226.8,719.1L1226.8,719.1z"/>
	<path d="M1215.1,732.7h-42.8c-7.5,0-13.6-6.1-13.6-13.5c0-7.5,6.1-13.6,13.6-13.6h42.8c7.5,0,13.6,6.1,13.6,13.6
		C1228.6,726.6,1222.6,732.7,1215.1,732.7z M1172.3,709.2c-5.5,0-9.9,4.5-9.9,9.9c0,5.5,4.5,9.9,9.9,9.9h42.8c5.5,0,9.9-4.5,9.9-9.9
		c0-5.5-4.5-9.9-9.9-9.9H1172.3z"/>
</g>
<g>
	<path fill="#78E1FF" d="M937.5,529.2c0,32.3-26.2,58.4-58.4,58.4H512.7c-32.2,0-58.4-26.1-58.4-58.4v-24.9
		c0-32.3,26.2-58.4,58.4-58.4h366.3c32.3,0,58.4,26.2,58.4,58.4V529.2z"/>
	<path d="M879.1,589.4H512.7c-33.2,0-60.2-27-60.2-60.2v-24.9c0-33.2,27-60.2,60.2-60.2h366.3c33.2,0,60.2,27,60.2,60.2v24.9
		C939.3,562.4,912.3,589.4,879.1,589.4z M512.7,447.7c-31.2,0-56.6,25.4-56.6,56.6v24.9c0,31.2,25.4,56.6,56.6,56.6h366.3
		c31.2,0,56.6-25.4,56.6-56.6v-24.9c0-31.2-25.4-56.6-56.6-56.6H512.7z"/>
</g>
<g>
	<path fill="#FF998C" d="M999.3,333.3c0-17.1-13.9-31-31-31H423.6c-17.1,0-31,13.9-31,31v30.8h606.7V333.3z"/>
	<path d="M999.3,365.9H392.6c-1,0-1.8-0.8-1.8-1.8v-30.8c0-18.1,14.7-32.8,32.8-32.8h544.7c18.1,0,32.8,14.7,32.8,32.8v30.8
		C1001.1,365.1,1000.3,365.9,999.3,365.9z M394.4,362.2h603.1v-28.9c0-16.1-13.1-29.2-29.2-29.2H423.6c-16.1,0-29.2,13.1-29.2,29.2
		V362.2z"/>
</g>
<g>
	<polygon fill="#808285" points="577,502.6 567.4,486 542.9,500.2 542.9,471.9 523.8,471.9 523.8,500.2 499.3,486 489.8,502.6 
		514.3,516.7 489.8,530.9 499.3,547.4 523.8,533.3 523.8,561.6 542.9,561.6 542.9,533.3 567.4,547.4 577,530.9 552.5,516.7 	"/>
	<path d="M542.9,563.4h-19.1c-1,0-1.8-0.8-1.8-1.8v-25.2L500.2,549c-0.9,0.5-2,0.2-2.5-0.7l-9.6-16.5c-0.2-0.4-0.3-0.9-0.2-1.4
		c0.1-0.5,0.4-0.9,0.8-1.1l21.8-12.6l-21.8-12.6c-0.4-0.2-0.7-0.6-0.8-1.1s-0.1-1,0.2-1.4l9.6-16.5c0.5-0.9,1.6-1.2,2.5-0.7L522,497
		v-25.1c0-1,0.8-1.8,1.8-1.8h19.1c1,0,1.8,0.8,1.8,1.8V497l21.8-12.6c0.4-0.2,0.9-0.3,1.4-0.2c0.5,0.1,0.9,0.4,1.1,0.8l9.5,16.5
		c0.5,0.9,0.2,2-0.7,2.5l-21.8,12.6l21.8,12.6c0.9,0.5,1.2,1.6,0.7,2.5l-9.5,16.5c-0.2,0.4-0.6,0.7-1.1,0.8c-0.5,0.1-1,0.1-1.4-0.2
		l-21.8-12.6v25.1C544.7,562.6,543.9,563.4,542.9,563.4z M525.6,559.7h15.5v-26.5c0-0.6,0.3-1.2,0.9-1.6c0.6-0.3,1.3-0.3,1.8,0
		l22.9,13.2l7.7-13.4l-22.9-13.2c-0.6-0.3-0.9-0.9-0.9-1.6c0-0.6,0.3-1.2,0.9-1.6l22.9-13.2l-7.7-13.4l-22.9,13.2
		c-0.6,0.3-1.3,0.3-1.8,0c-0.6-0.3-0.9-0.9-0.9-1.6v-26.5h-15.5v26.5c0,0.6-0.3,1.2-0.9,1.6c-0.6,0.3-1.3,0.3-1.8,0L500,488.5
		l-7.7,13.4l22.9,13.2c0.6,0.3,0.9,0.9,0.9,1.6c0,0.6-0.3,1.2-0.9,1.6l-22.9,13.2l7.7,13.4l22.9-13.2c0.6-0.3,1.3-0.3,1.8,0
		c0.6,0.3,0.9,0.9,0.9,1.6V559.7z"/>
</g>
<g>
	<polygon fill="#808285" points="691.6,502.6 682.1,486 657.6,500.2 657.6,471.9 638.5,471.9 638.5,500.2 614,486 604.4,502.6 
		628.9,516.7 604.4,530.9 614,547.4 638.5,533.3 638.5,561.6 657.6,561.6 657.6,533.3 682.1,547.4 691.6,530.9 667.1,516.7 	"/>
	<path d="M657.6,563.4h-19.1c-1,0-1.8-0.8-1.8-1.8v-25.2L614.9,549c-0.4,0.2-0.9,0.3-1.4,0.2c-0.5-0.1-0.9-0.4-1.1-0.8l-9.6-16.5
		c-0.2-0.4-0.3-0.9-0.2-1.4c0.1-0.5,0.4-0.9,0.8-1.1l21.8-12.6l-21.8-12.6c-0.4-0.2-0.7-0.6-0.8-1.1s-0.1-1,0.2-1.4l9.6-16.5
		c0.2-0.4,0.6-0.7,1.1-0.8c0.5-0.1,1-0.1,1.4,0.2l21.8,12.6v-25.1c0-1,0.8-1.8,1.8-1.8h19.1c1,0,1.8,0.8,1.8,1.8V497l21.8-12.6
		c0.9-0.5,2-0.2,2.5,0.7l9.6,16.5c0.2,0.4,0.3,0.9,0.2,1.4s-0.4,0.9-0.8,1.1l-21.8,12.6l21.8,12.6c0.4,0.2,0.7,0.6,0.8,1.1
		s0.1,1-0.2,1.4l-9.6,16.5c-0.5,0.9-1.6,1.2-2.5,0.7l-21.8-12.6v25.1C659.4,562.6,658.6,563.4,657.6,563.4z M640.3,559.7h15.5v-26.5
		c0-0.6,0.3-1.2,0.9-1.6c0.6-0.3,1.3-0.3,1.8,0l22.9,13.2l7.7-13.4l-22.9-13.2c-0.6-0.3-0.9-0.9-0.9-1.6c0-0.6,0.3-1.2,0.9-1.6
		l22.9-13.2l-7.7-13.4l-22.9,13.2c-0.6,0.3-1.3,0.3-1.8,0c-0.6-0.3-0.9-0.9-0.9-1.6v-26.5h-15.5v26.5c0,0.6-0.3,1.2-0.9,1.6
		c-0.6,0.3-1.3,0.3-1.8,0l-22.9-13.2l-7.7,13.4l22.9,13.2c0.6,0.3,0.9,0.9,0.9,1.6c0,0.6-0.3,1.2-0.9,1.6l-22.9,13.2l7.7,13.4
		l22.9-13.2c0.6-0.3,1.3-0.3,1.8,0c0.6,0.3,0.9,0.9,0.9,1.6V559.7z"/>
</g>
<g>
	<polygon fill="#808285" points="806.3,502.6 796.7,486 772.2,500.2 772.2,471.9 753.1,471.9 753.1,500.2 728.6,486 719.1,502.6 
		743.6,516.7 719.1,530.9 728.6,547.4 753.1,533.3 753.1,561.6 772.2,561.6 772.2,533.3 796.7,547.4 806.3,530.9 781.8,516.7 	"/>
	<path d="M772.2,563.4h-19.1c-1,0-1.8-0.8-1.8-1.8v-25.2L729.5,549c-0.9,0.5-2,0.2-2.5-0.7l-9.6-16.5c-0.2-0.4-0.3-0.9-0.2-1.4
		c0.1-0.5,0.4-0.9,0.8-1.1l21.8-12.6l-21.8-12.6c-0.4-0.2-0.7-0.6-0.8-1.1s-0.1-1,0.2-1.4l9.6-16.5c0.5-0.9,1.6-1.2,2.5-0.7
		l21.8,12.6v-25.1c0-1,0.8-1.8,1.8-1.8h19.1c1,0,1.8,0.8,1.8,1.8V497l21.8-12.6c0.4-0.2,0.9-0.3,1.4-0.2c0.5,0.1,0.9,0.4,1.1,0.8
		l9.5,16.5c0.5,0.9,0.2,2-0.7,2.5l-21.8,12.6l21.8,12.6c0.9,0.5,1.2,1.6,0.7,2.5l-9.5,16.5c-0.2,0.4-0.6,0.7-1.1,0.8
		c-0.5,0.1-1,0.1-1.4-0.2L774,536.4v25.1C774,562.6,773.2,563.4,772.2,563.4z M754.9,559.7h15.5v-26.5c0-0.6,0.3-1.2,0.9-1.6
		c0.6-0.3,1.3-0.3,1.8,0l22.9,13.2l7.7-13.4l-22.9-13.2c-0.6-0.3-0.9-0.9-0.9-1.6c0-0.6,0.3-1.2,0.9-1.6l22.9-13.2l-7.7-13.4
		l-22.9,13.2c-0.6,0.3-1.3,0.3-1.8,0c-0.6-0.3-0.9-0.9-0.9-1.6v-26.5h-15.5v26.5c0,0.6-0.3,1.2-0.9,1.6c-0.6,0.3-1.3,0.3-1.8,0
		l-22.9-13.2l-7.7,13.4l22.9,13.2c0.6,0.3,0.9,0.9,0.9,1.6c0,0.6-0.3,1.2-0.9,1.6l-22.9,13.2l7.7,13.4l22.9-13.2
		c0.6-0.3,1.3-0.3,1.8,0c0.6,0.3,0.9,0.9,0.9,1.6V559.7z"/>
</g>
<g>
	<path d="M454.3,335h-32.5c-1,0-1.8-0.8-1.8-1.8c0-1,0.8-1.8,1.8-1.8h32.5c1,0,1.8,0.8,1.8,1.8C456.1,334.2,455.3,335,454.3,335z"/>
</g>
<g>
	<path d="M512.2,335h-32.5c-1,0-1.8-0.8-1.8-1.8c0-1,0.8-1.8,1.8-1.8h32.5c1,0,1.8,0.8,1.8,1.8C514,334.2,513.2,335,512.2,335z"/>
</g>
<g>
	<path d="M570.1,335h-32.5c-1,0-1.8-0.8-1.8-1.8c0-1,0.8-1.8,1.8-1.8h32.5c1,0,1.8,0.8,1.8,1.8C571.9,334.2,571.1,335,570.1,335z"/>
</g>
<g>
	<g>
		<g>
			<path fill="#FFEF7C" d="M935.1,814.6c68.5-23.1,106.7-81.1,128-134.2l-224.2,59.7C861.3,772.1,892.3,800.2,935.1,814.6z"/>
			<path d="M935.1,816.4c-0.2,0-0.4,0-0.6-0.1c-38.6-13-71.3-38.3-97.1-75.2c-0.3-0.5-0.4-1.1-0.2-1.7c0.2-0.6,0.7-1,1.2-1.1
				l224.2-59.7c0.7-0.2,1.4,0,1.8,0.6c0.5,0.5,0.6,1.2,0.3,1.9c-27.7,69.4-72.4,116.1-129.1,135.2
				C935.5,816.4,935.3,816.4,935.1,816.4z M841.9,741.1c25,34.9,56.4,59,93.2,71.5c55.3-18.8,97.3-62.4,124.9-129.6L841.9,741.1z"/>
		</g>
		<g>
			<path fill="#FFEF7C" d="M935.1,535.3l-153.7,40.2c0,0,2.5,34.4,16,77.6l291.3-77.6L935.1,535.3z"/>
			<path d="M797.4,654.8c-0.8,0-1.5-0.5-1.7-1.3c-13.4-42.9-16.1-77.6-16.1-78c-0.1-0.9,0.5-1.7,1.3-1.9l153.7-40.2
				c0.3-0.1,0.6-0.1,0.9,0l153.7,40.2c0.8,0.2,1.4,0.9,1.4,1.8c0,0.8-0.6,1.5-1.3,1.8l-291.3,77.6
				C797.7,654.8,797.6,654.8,797.4,654.8z M783.3,576.8c0.7,7,4,37.3,15.3,74l283-75.4l-146.6-38.3L783.3,576.8z"/>
		</g>
		<g>
			<path fill="#808285" d="M797.4,653c8.6,27.6,21.7,58.8,41.5,87l224.2-59.7c22-55.1,25.7-104.9,25.7-104.9L797.4,653z"/>
			<path d="M838.9,741.9c-0.6,0-1.1-0.3-1.5-0.8c-17.2-24.6-31.3-54-41.7-87.5c-0.1-0.5-0.1-1,0.1-1.4c0.2-0.4,0.6-0.7,1.1-0.9
				l291.3-77.6c0.6-0.1,1.2,0,1.6,0.4c0.5,0.4,0.7,0.9,0.6,1.5c0,0.5-4,50.7-25.8,105.5c-0.2,0.5-0.7,0.9-1.2,1.1l-224.2,59.7
				C839.2,741.9,839,741.9,838.9,741.9z M799.7,654.3c10.1,31.9,23.5,60.1,39.9,83.7l222.1-59.1c18.6-46.9,23.9-90.2,25-101
				L799.7,654.3z"/>
		</g>
	</g>
	<g>
		<path d="M816.2,701.5c-0.8,0-1.5-0.5-1.8-1.3c-0.3-1,0.3-2,1.3-2.2l144.7-38.5c1-0.2,2,0.3,2.2,1.3c0.3,1-0.3,2-1.3,2.2
			l-144.7,38.5C816.5,701.4,816.3,701.5,816.2,701.5z"/>
	</g>
</g>
<g>
	<path d="M1246.5,267h-208.1c-24.8,0-45-20.2-45-45c0-24.8,20.2-45,45-45h3.9c0.9-20.6,18-37,38.8-37c2.3,0,4.6,0.2,6.9,0.6
		c14.7-30.4,45.7-50,79.5-50c48.7,0,88.2,39.6,88.2,88.2c0,3.9-0.3,7.7-0.7,11.5c17.7,3.9,30.3,19.6,30.3,37.9
		C1285.3,249.6,1267.9,267,1246.5,267z M1038.3,180.6c-22.8,0-41.4,18.6-41.4,41.4c0,22.8,18.6,41.4,41.4,41.4h208.1
		c19.4,0,35.2-15.8,35.2-35.2c0-17.1-12.2-31.7-29-34.7c-1-0.2-1.6-1.1-1.5-2.1c0.6-4.1,0.9-8.4,0.9-12.7c0-46.7-38-84.6-84.6-84.6
		c-32.9,0-63.1,19.3-76.9,49.2c-0.4,0.8-1.2,1.2-2,1c-2.4-0.5-5-0.8-7.5-0.8c-19.4,0-35.2,15.8-35.2,35.2c0,1-0.8,1.8-1.8,1.8
		H1038.3z"/>
</g>
<g>
	<g>
		<path d="M1290.4,162.7c-1,0-1.8-0.8-1.8-1.8v-31.3c0-27.5-22.4-49.9-49.9-49.9c-27.5,0-49.9,22.4-49.9,49.9v31.3
			c0,1-0.8,1.8-1.8,1.8c-1,0-1.8-0.8-1.8-1.8v-31.3c0-29.5,24-53.5,53.5-53.5c29.5,0,53.5,24,53.5,53.5v31.3
			C1292.2,161.9,1291.4,162.7,1290.4,162.7z"/>
	</g>
	<g>
		<rect x="1160.2" y="186.5" fill="#FFFFFF" width="157.1" height="103.8"/>
		<path d="M1317.3,292.1h-157.1c-1,0-1.8-0.8-1.8-1.8V186.5c0-1,0.8-1.8,1.8-1.8h157.1c1,0,1.8,0.8,1.8,1.8v103.8
			C1319.1,291.3,1318.3,292.1,1317.3,292.1z M1162,288.5h153.4V188.3H1162V288.5z"/>
	</g>
	<g>
		<rect x="1160.2" y="160.9" fill="#FFFFFF" width="157.1" height="25.5"/>
		<path d="M1317.3,188.3h-157.1c-1,0-1.8-0.8-1.8-1.8v-25.5c0-1,0.8-1.8,1.8-1.8h157.1c1,0,1.8,0.8,1.8,1.8v25.5
			C1319.1,187.5,1318.3,188.3,1317.3,188.3z M1162,184.6h153.4v-21.9H1162V184.6z"/>
	</g>
	<g>
		<line fill="#FFFFFF" x1="1238.7" y1="249" x2="1238.7" y2="275.6"/>
		<path d="M1238.7,277.5c-1,0-1.8-0.8-1.8-1.8V249c0-1,0.8-1.8,1.8-1.8c1,0,1.8,0.8,1.8,1.8v26.6
			C1240.5,276.7,1239.7,277.5,1238.7,277.5z"/>
	</g>
	<g>
		<path fill="#FFFFFF" d="M1259.8,228c0,11.6-9.4,21-21,21c-11.6,0-21-9.4-21-21c0-11.6,9.4-21,21-21
			C1250.3,207,1259.8,216.4,1259.8,228z"/>
		<path d="M1238.7,250.9c-12.6,0-22.8-10.2-22.8-22.8c0-12.6,10.2-22.8,22.8-22.8c12.6,0,22.8,10.2,22.8,22.8
			C1261.6,240.6,1251.3,250.9,1238.7,250.9z M1238.7,208.8c-10.6,0-19.2,8.6-19.2,19.2c0,10.6,8.6,19.2,19.2,19.2
			c10.6,0,19.2-8.6,19.2-19.2C1257.9,217.4,1249.3,208.8,1238.7,208.8z"/>
	</g>
</g>
<g>
	<g>
		<path d="M1236.9,489.8c-1,0-1.8-0.8-1.8-1.8v-26.2c0-22.8-18.6-41.4-41.4-41.4c-22.8,0-41.4,18.6-41.4,41.4V488
			c0,1-0.8,1.8-1.8,1.8s-1.8-0.8-1.8-1.8v-26.2c0-24.8,20.2-45,45-45c24.8,0,45,20.2,45,45V488
			C1238.7,489,1237.9,489.8,1236.9,489.8z"/>
	</g>
	<g>
		<rect x="1128" y="509.3" fill="#FFFFFF" width="131.3" height="86.8"/>
		<path d="M1259.3,598H1128c-1,0-1.8-0.8-1.8-1.8v-86.8c0-1,0.8-1.8,1.8-1.8h131.3c1,0,1.8,0.8,1.8,1.8v86.8
			C1261.2,597.1,1260.3,598,1259.3,598z M1129.8,594.3h127.7v-83.2h-127.7V594.3z"/>
	</g>
	<g>
		<rect x="1128" y="488" fill="#FFFFFF" width="131.3" height="21.3"/>
		<path d="M1259.3,511.1H1128c-1,0-1.8-0.8-1.8-1.8V488c0-1,0.8-1.8,1.8-1.8h131.3c1,0,1.8,0.8,1.8,1.8v21.3
			C1261.2,510.3,1260.3,511.1,1259.3,511.1z M1129.8,507.5h127.7v-17.7h-127.7V507.5z"/>
	</g>
	<g>
		<line fill="#FFFFFF" x1="1193.7" y1="561.7" x2="1193.7" y2="583.9"/>
		<path d="M1193.7,585.7c-1,0-1.8-0.8-1.8-1.8v-22.2c0-1,0.8-1.8,1.8-1.8c1,0,1.8,0.8,1.8,1.8v22.2
			C1195.5,584.9,1194.7,585.7,1193.7,585.7z"/>
	</g>
	<g>
		<path fill="#FFFFFF" d="M1211.3,544.1c0,9.7-7.9,17.6-17.6,17.6c-9.7,0-17.6-7.9-17.6-17.6c0-9.7,7.9-17.6,17.6-17.6
			C1203.4,526.5,1211.3,534.4,1211.3,544.1z"/>
		<path d="M1193.7,563.5c-10.7,0-19.4-8.7-19.4-19.4c0-10.7,8.7-19.4,19.4-19.4s19.4,8.7,19.4,19.4
			C1213.1,554.8,1204.4,563.5,1193.7,563.5z M1193.7,528.3c-8.7,0-15.8,7.1-15.8,15.8c0,8.7,7.1,15.8,15.8,15.8s15.8-7.1,15.8-15.8
			C1209.5,535.4,1202.4,528.3,1193.7,528.3z"/>
	</g>
</g>
<g>
	<path fill="#FFFFFF" d="M1263.2,645.4c0,11.8-9.6,21.4-21.4,21.4h-96.2c-11.8,0-21.4-9.6-21.4-21.4l0,0c0-11.8,9.6-21.4,21.4-21.4
		h96.2C1253.6,623.9,1263.2,633.5,1263.2,645.4L1263.2,645.4z"/>
	<path d="M1241.8,668.6h-96.2c-12.8,0-23.2-10.4-23.2-23.2s10.4-23.2,23.2-23.2h96.2c12.8,0,23.2,10.4,23.2,23.2
		S1254.6,668.6,1241.8,668.6z M1145.6,625.8c-10.8,0-19.6,8.8-19.6,19.6c0,10.8,8.8,19.6,19.6,19.6h96.2c10.8,0,19.6-8.8,19.6-19.6
		c0-10.8-8.8-19.6-19.6-19.6H1145.6z"/>
</g>
<g>
	<path fill="#FFFFFF" d="M1161.5,645.4c0,4.7-3.8,8.6-8.6,8.6c-4.7,0-8.6-3.8-8.6-8.6c0-4.7,3.8-8.6,8.6-8.6
		C1157.6,636.8,1161.5,640.6,1161.5,645.4z"/>
	<path d="M1152.9,655.7c-5.7,0-10.4-4.7-10.4-10.4c0-5.7,4.7-10.4,10.4-10.4c5.7,0,10.4,4.7,10.4,10.4
		C1163.3,651.1,1158.6,655.7,1152.9,655.7z M1152.9,638.6c-3.7,0-6.8,3-6.8,6.8c0,3.7,3,6.7,6.8,6.7c3.7,0,6.7-3,6.7-6.7
		C1159.6,641.6,1156.6,638.6,1152.9,638.6z"/>
</g>
<g>
	<path fill="#FFFFFF" d="M1188.6,645.4c0,4.7-3.8,8.6-8.6,8.6c-4.7,0-8.6-3.8-8.6-8.6c0-4.7,3.8-8.6,8.6-8.6
		C1184.8,636.8,1188.6,640.6,1188.6,645.4z"/>
	<path d="M1180.1,655.7c-5.7,0-10.4-4.7-10.4-10.4c0-5.7,4.7-10.4,10.4-10.4c5.7,0,10.4,4.7,10.4,10.4
		C1190.5,651.1,1185.8,655.7,1180.1,655.7z M1180.1,638.6c-3.7,0-6.8,3-6.8,6.8c0,3.7,3,6.7,6.8,6.7c3.7,0,6.7-3,6.7-6.7
		C1186.8,641.6,1183.8,638.6,1180.1,638.6z"/>
</g>
<g>
	<path fill="#FFFFFF" d="M1215.8,645.4c0,4.7-3.8,8.6-8.6,8.6c-4.7,0-8.6-3.8-8.6-8.6c0-4.7,3.8-8.6,8.6-8.6
		C1212,636.8,1215.8,640.6,1215.8,645.4z"/>
	<path d="M1207.3,655.7c-5.7,0-10.4-4.7-10.4-10.4c0-5.7,4.7-10.4,10.4-10.4c5.7,0,10.4,4.7,10.4,10.4
		C1217.7,651.1,1213,655.7,1207.3,655.7z M1207.3,638.6c-3.7,0-6.8,3-6.8,6.8c0,3.7,3,6.7,6.8,6.7c3.7,0,6.7-3,6.7-6.7
		C1214,641.6,1211,638.6,1207.3,638.6z"/>
</g>
<g>
	<path fill="#FFFFFF" d="M1243,645.4c0,4.7-3.8,8.6-8.6,8.6c-4.7,0-8.6-3.8-8.6-8.6c0-4.7,3.8-8.6,8.6-8.6
		C1239.2,636.8,1243,640.6,1243,645.4z"/>
	<path d="M1234.5,655.7c-5.7,0-10.4-4.7-10.4-10.4c0-5.7,4.7-10.4,10.4-10.4c5.7,0,10.4,4.7,10.4,10.4
		C1244.8,651.1,1240.2,655.7,1234.5,655.7z M1234.5,638.6c-3.7,0-6.8,3-6.8,6.8c0,3.7,3,6.7,6.8,6.7c3.7,0,6.7-3,6.7-6.7
		C1241.2,641.6,1238.2,638.6,1234.5,638.6z"/>
</g>
<g>
	<rect x="87.5" y="89.3" fill="#FFFFFF" width="239.5" height="27.6"/>
	<path d="M327.1,118.7H87.5c-1,0-1.8-0.8-1.8-1.8V89.3c0-1,0.8-1.8,1.8-1.8h239.5c1,0,1.8,0.8,1.8,1.8v27.6
		C328.9,117.9,328.1,118.7,327.1,118.7z M89.3,115.1h235.9v-24H89.3V115.1z"/>
</g>
<g>
	<rect x="87.5" y="116.9" fill="#FFFFFF" width="239.5" height="186.5"/>
	<path d="M327.1,305.3H87.5c-1,0-1.8-0.8-1.8-1.8V116.9c0-1,0.8-1.8,1.8-1.8h239.5c1,0,1.8,0.8,1.8,1.8v186.5
		C328.9,304.4,328.1,305.3,327.1,305.3z M89.3,301.6h235.9V118.7H89.3V301.6z"/>
</g>
<g>
	<rect x="87.5" y="303.4" fill="#FFFFFF" width="239.5" height="43"/>
	<path d="M327.1,348.3H87.5c-1,0-1.8-0.8-1.8-1.8v-43c0-1,0.8-1.8,1.8-1.8h239.5c1,0,1.8,0.8,1.8,1.8v43
		C328.9,347.5,328.1,348.3,327.1,348.3z M89.3,344.7h235.9v-39.4H89.3V344.7z"/>
</g>
<g>
	<g>
		<g>
			<path fill="#FFFFFF" d="M207.3,274.8c31.7-10.7,49.4-37.5,59.3-62.1l-103.8,27.6C173.1,255.2,187.5,268.2,207.3,274.8z"/>
			<path d="M207.3,276.7c-0.2,0-0.4,0-0.6-0.1c-18.1-6.1-33.4-17.9-45.5-35.2c-0.3-0.5-0.4-1.1-0.2-1.7s0.7-1,1.2-1.1l103.8-27.6
				c0.7-0.2,1.4,0,1.8,0.6c0.5,0.5,0.6,1.2,0.3,1.9c-13,32.4-33.8,54.3-60.4,63.2C207.7,276.6,207.5,276.7,207.3,276.7z
				 M165.7,241.4c11.3,15.3,25.2,25.9,41.6,31.5c24.7-8.5,43.5-27.8,56.2-57.5L165.7,241.4z"/>
		</g>
		<g>
			<path fill="#FFFFFF" d="M207.3,145.5l-71.2,18.6c0,0,1.2,15.9,7.4,35.9l134.9-35.9L207.3,145.5z"/>
			<path d="M143.5,201.8c-0.8,0-1.5-0.5-1.7-1.3c-6.2-20-7.4-35.7-7.5-36.3c-0.1-0.9,0.5-1.7,1.3-1.9l71.2-18.6
				c0.3-0.1,0.6-0.1,0.9,0l71.2,18.6c0.8,0.2,1.4,0.9,1.4,1.8c0,0.8-0.6,1.5-1.3,1.8L144,201.8C143.9,201.8,143.7,201.8,143.5,201.8
				z M138.1,165.5c0.4,4.2,2.1,17,6.7,32.4l126.6-33.7l-64.1-16.8L138.1,165.5z"/>
		</g>
		<g>
			<path fill="#FFFFFF" d="M143.5,200c4,12.8,10.1,27.3,19.2,40.3l103.8-27.6c10.2-25.5,11.9-48.6,11.9-48.6L143.5,200z"/>
			<path d="M162.7,242.2c-0.6,0-1.1-0.3-1.5-0.8c-8-11.5-14.6-25.2-19.4-40.8c-0.1-0.5-0.1-1,0.1-1.4c0.2-0.4,0.6-0.7,1.1-0.9
				L278,162.4c0.6-0.1,1.2,0,1.6,0.4c0.5,0.4,0.7,0.9,0.6,1.5c0,0.2-1.8,23.6-12,49.1c-0.2,0.5-0.7,0.9-1.2,1.1l-103.8,27.6
				C163,242.1,162.9,242.2,162.7,242.2z M145.8,201.3c4.5,14.1,10.5,26.5,17.7,37l101.7-27.1c7.8-19.8,10.4-38.1,11.2-44.6
				L145.8,201.3z"/>
		</g>
	</g>
	<g>
		<path d="M152.2,223.4c-0.8,0-1.5-0.5-1.8-1.3c-0.3-1,0.3-2,1.3-2.2l67-17.8c1-0.3,2,0.3,2.2,1.3c0.3,1-0.3,2-1.3,2.2l-67,17.8
			C152.5,223.4,152.4,223.4,152.2,223.4z"/>
	</g>
</g>
<g>
	<path d="M122.2,104.9H98.9c-1,0-1.8-0.8-1.8-1.8s0.8-1.8,1.8-1.8h23.3c1,0,1.8,0.8,1.8,1.8S123.2,104.9,122.2,104.9z"/>
</g>
<g>
	<path d="M148,104.9H133c-1,0-1.8-0.8-1.8-1.8s0.8-1.8,1.8-1.8H148c1,0,1.8,0.8,1.8,1.8S149,104.9,148,104.9z"/>
</g>
<g>
	<path d="M110.5,335.6c-5.9,0-10.7-4.8-10.7-10.7c0-5.9,4.8-10.7,10.7-10.7c5.9,0,10.7,4.8,10.7,10.7
		C121.2,330.8,116.4,335.6,110.5,335.6z M110.5,317.9c-3.9,0-7,3.2-7,7c0,3.9,3.2,7,7,7c3.9,0,7-3.2,7-7
		C117.6,321.1,114.4,317.9,110.5,317.9z"/>
</g>
<g>
	<g>
		<path d="M639.2,246.4H414.8c-11.9,0-21.6-9.7-21.6-21.6V106.2c0-11.9,9.7-21.6,21.6-21.6h224.4c11.9,0,21.6,9.7,21.6,21.6v118.6
			C660.8,236.7,651.1,246.4,639.2,246.4z M414.8,88.3c-9.9,0-18,8.1-18,18v118.6c0,9.9,8.1,17.9,18,17.9h224.4c9.9,0,18-8.1,18-17.9
			V106.2c0-9.9-8.1-18-18-18H414.8z"/>
	</g>
	<g>
		<path d="M464.8,218.4h-39.7c-1,0-1.8-0.8-1.8-1.8v-15.4c0-1,0.8-1.8,1.8-1.8h39.7c1,0,1.8,0.8,1.8,1.8v15.4
			C466.6,217.6,465.8,218.4,464.8,218.4z M426.9,214.8H463V203h-36.1V214.8z"/>
	</g>
	<g>
		<path d="M519.5,218.4h-39.7c-1,0-1.8-0.8-1.8-1.8v-15.4c0-1,0.8-1.8,1.8-1.8h39.7c1,0,1.8,0.8,1.8,1.8v15.4
			C521.3,217.6,520.5,218.4,519.5,218.4z M481.6,214.8h36.1V203h-36.1V214.8z"/>
	</g>
	<g>
		<path d="M574.2,218.4h-39.7c-1,0-1.8-0.8-1.8-1.8v-15.4c0-1,0.8-1.8,1.8-1.8h39.7c1,0,1.8,0.8,1.8,1.8v15.4
			C576,217.6,575.2,218.4,574.2,218.4z M536.3,214.8h36.1V203h-36.1V214.8z"/>
	</g>
	<g>
		<path d="M628.9,218.4h-39.7c-1,0-1.8-0.8-1.8-1.8v-15.4c0-1,0.8-1.8,1.8-1.8h39.7c1,0,1.8,0.8,1.8,1.8v15.4
			C630.7,217.6,629.9,218.4,628.9,218.4z M591,214.8h36.1V203H591V214.8z"/>
	</g>
	<g>
		<path d="M548,113.5h-123c-1,0-1.8-0.8-1.8-1.8s0.8-1.8,1.8-1.8h123c1,0,1.8,0.8,1.8,1.8S549,113.5,548,113.5z"/>
	</g>
	<g>
		<path d="M532.1,133.8h-107c-1,0-1.8-0.8-1.8-1.8c0-1,0.8-1.8,1.8-1.8h107c1,0,1.8,0.8,1.8,1.8C533.9,133,533.1,133.8,532.1,133.8z
			"/>
	</g>
	<g>
		<path d="M496.4,174.5h-71.3c-1,0-1.8-0.8-1.8-1.8s0.8-1.8,1.8-1.8h71.3c1,0,1.8,0.8,1.8,1.8S497.4,174.5,496.4,174.5z"/>
	</g>
	<g>
		<g>
			<path d="M589.3,144.8c-10.7,0-19.3-8.7-19.3-19.3c0-10.7,8.7-19.4,19.3-19.4c5,0,9.8,1.9,13.4,5.5c0.4,0.3,0.6,0.8,0.6,1.3
				c0,0.5-0.2,1-0.6,1.3c-3.1,3-4.8,7-4.8,11.3c0,4.3,1.7,8.3,4.8,11.3c0.4,0.3,0.6,0.8,0.6,1.3c0,0.5-0.2,1-0.6,1.3
				C599.1,142.8,594.4,144.8,589.3,144.8z M589.3,109.7c-8.7,0-15.7,7.1-15.7,15.7s7.1,15.7,15.7,15.7c3.5,0,6.8-1.1,9.6-3.3
				c-3-3.5-4.6-7.8-4.6-12.5c0-4.6,1.6-9,4.6-12.5C596.2,110.8,592.8,109.7,589.3,109.7z"/>
		</g>
		<g>
			<path d="M613.7,144.8c-5,0-9.8-1.9-13.4-5.5c-0.4-0.3-0.6-0.8-0.6-1.3c0-0.5,0.2-1,0.6-1.3c3.1-3,4.8-7,4.8-11.3
				c0-4.3-1.7-8.3-4.8-11.3c-0.4-0.3-0.6-0.8-0.6-1.3c0-0.5,0.2-1,0.6-1.3c3.6-3.5,8.4-5.5,13.4-5.5c10.7,0,19.3,8.7,19.3,19.4
				C633,136.1,624.3,144.8,613.7,144.8z M604.1,137.9c2.7,2.1,6.1,3.3,9.6,3.3c8.7,0,15.7-7.1,15.7-15.7s-7.1-15.7-15.7-15.7
				c-3.5,0-6.8,1.1-9.6,3.3c3,3.5,4.6,7.8,4.6,12.5C608.7,130,607.1,134.4,604.1,137.9z"/>
		</g>
		<g>
			<path d="M601.5,139.8c-0.5,0-0.9-0.2-1.3-0.5c-3.8-3.7-5.9-8.6-5.9-13.9c0-5.3,2.1-10.2,5.9-13.9c0.7-0.7,1.8-0.7,2.5,0
				c3.8,3.7,5.9,8.6,5.9,13.9c0,5.3-2.1,10.2-5.9,13.9C602.4,139.6,602,139.8,601.5,139.8z M601.5,115.5c-2.3,2.8-3.6,6.3-3.6,9.9
				c0,3.7,1.3,7.1,3.6,9.9c2.3-2.8,3.5-6.3,3.5-9.9C605,121.7,603.8,118.3,601.5,115.5z"/>
		</g>
	</g>
</g>
<g>
	<g>
		<path fill="#FFFFFF" d="M606.5,185.1v-21.7c0-19.8,16.1-35.9,35.9-35.9l0,0c19.8,0,35.9,16.1,35.9,35.9v21.7"/>
		<path d="M678.2,186.9c-1,0-1.8-0.8-1.8-1.8v-21.7c0-18.8-15.3-34-34-34c-18.8,0-34,15.3-34,34v21.7c0,1-0.8,1.8-1.8,1.8
			s-1.8-0.8-1.8-1.8v-21.7c0-20.8,16.9-37.7,37.7-37.7c20.8,0,37.7,16.9,37.7,37.7v21.7C680,186.1,679.2,186.9,678.2,186.9z"/>
	</g>
	<g>
		<rect x="587.9" y="202.8" fill="#FFFFFF" width="108.9" height="72"/>
		<path d="M696.8,276.7H587.9c-1,0-1.8-0.8-1.8-1.8v-72c0-1,0.8-1.8,1.8-1.8h108.9c1,0,1.8,0.8,1.8,1.8v72
			C698.6,275.8,697.8,276.7,696.8,276.7z M589.7,273H695v-68.4H589.7V273z"/>
	</g>
	<g>
		<rect x="587.9" y="185.1" fill="#FFFFFF" width="108.9" height="17.7"/>
		<path d="M696.8,204.7H587.9c-1,0-1.8-0.8-1.8-1.8v-17.7c0-1,0.8-1.8,1.8-1.8h108.9c1,0,1.8,0.8,1.8,1.8v17.7
			C698.6,203.8,697.8,204.7,696.8,204.7z M589.7,201H695v-14.1H589.7V201z"/>
	</g>
	<g>
		<line fill="#FFFFFF" x1="642.4" y1="246.2" x2="642.4" y2="264.7"/>
		<path d="M642.4,266.5c-1,0-1.8-0.8-1.8-1.8v-18.4c0-1,0.8-1.8,1.8-1.8s1.8,0.8,1.8,1.8v18.4C644.2,265.7,643.4,266.5,642.4,266.5z
			"/>
	</g>
	<g>
		<path fill="#FFFFFF" d="M656.9,231.7c0,8.1-6.5,14.6-14.6,14.6c-8.1,0-14.6-6.5-14.6-14.6s6.5-14.6,14.6-14.6
			C650.4,217.1,656.9,223.6,656.9,231.7z"/>
		<path d="M642.4,248.1c-9,0-16.4-7.4-16.4-16.4s7.4-16.4,16.4-16.4s16.4,7.4,16.4,16.4S651.4,248.1,642.4,248.1z M642.4,218.9
			c-7,0-12.8,5.7-12.8,12.8s5.7,12.8,12.8,12.8s12.8-5.7,12.8-12.8S649.4,218.9,642.4,218.9z"/>
	</g>
</g>
<g>
	<g>
		<path fill="#FFFFFF" d="M577.7,784.3v-24.2c0-22.1,17.9-40,40-40l0,0c22.1,0,40,17.9,40,40v24.2"/>
		<path d="M657.8,786.2c-1,0-1.8-0.8-1.8-1.8v-24.2c0-21.1-17.1-38.2-38.2-38.2c-21.1,0-38.2,17.1-38.2,38.2v24.2
			c0,1-0.8,1.8-1.8,1.8c-1,0-1.8-0.8-1.8-1.8v-24.2c0-23.1,18.8-41.8,41.8-41.8c23.1,0,41.8,18.8,41.8,41.8v24.2
			C659.6,785.4,658.8,786.2,657.8,786.2z"/>
	</g>
	<g>
		<rect x="557" y="804.1" fill="#FFFFFF" width="121.5" height="80.3"/>
		<path d="M678.5,886.3H557c-1,0-1.8-0.8-1.8-1.8v-80.3c0-1,0.8-1.8,1.8-1.8h121.5c1,0,1.8,0.8,1.8,1.8v80.3
			C680.3,885.5,679.5,886.3,678.5,886.3z M558.8,882.6h117.9v-76.7H558.8V882.6z"/>
	</g>
	<g>
		<rect x="557" y="784.3" fill="#FFFFFF" width="121.5" height="19.8"/>
		<path d="M678.5,805.9H557c-1,0-1.8-0.8-1.8-1.8v-19.8c0-1,0.8-1.8,1.8-1.8h121.5c1,0,1.8,0.8,1.8,1.8v19.8
			C680.3,805.1,679.5,805.9,678.5,805.9z M558.8,802.3h117.9v-16.1H558.8V802.3z"/>
	</g>
	<g>
		<line fill="#FFFFFF" x1="617.8" y1="852.5" x2="617.8" y2="873.1"/>
		<path d="M617.8,874.9c-1,0-1.8-0.8-1.8-1.8v-20.6c0-1,0.8-1.8,1.8-1.8c1,0,1.8,0.8,1.8,1.8v20.6
			C619.6,874.1,618.8,874.9,617.8,874.9z"/>
	</g>
	<g>
		<path fill="#FFFFFF" d="M634,836.3c0,9-7.3,16.3-16.3,16.3c-9,0-16.3-7.3-16.3-16.3c0-9,7.3-16.3,16.3-16.3
			C626.7,820,634,827.3,634,836.3z"/>
		<path d="M617.8,854.3c-10,0-18.1-8.1-18.1-18.1s8.1-18.1,18.1-18.1c10,0,18.1,8.1,18.1,18.1S627.7,854.3,617.8,854.3z
			 M617.8,821.8c-8,0-14.5,6.5-14.5,14.5c0,8,6.5,14.5,14.5,14.5c8,0,14.5-6.5,14.5-14.5C632.2,828.3,625.7,821.8,617.8,821.8z"/>
	</g>
</g>
<g>
	<circle fill="#FFFFFF" cx="836" cy="178.7" r="89.5"/>
	<path d="M836,270c-50.3,0-91.3-40.9-91.3-91.3c0-50.3,40.9-91.3,91.3-91.3c50.3,0,91.3,40.9,91.3,91.3
		C927.3,229.1,886.3,270,836,270z M836,91.1c-48.3,0-87.6,39.3-87.6,87.6c0,48.3,39.3,87.6,87.6,87.6c48.3,0,87.6-39.3,87.6-87.6
		C923.6,130.4,884.3,91.1,836,91.1z"/>
</g>
<g>
	<g>
		<polygon fill="#FFFFFF" points="919.7,107.4 835.4,191.7 792.5,148.9 792.5,195 835.4,237.9 942.8,130.5 		"/>
		<path d="M835.4,239.7c-0.5,0-0.9-0.2-1.3-0.5l-42.9-42.9c-0.3-0.3-0.5-0.8-0.5-1.3v-46.2c0-0.7,0.4-1.4,1.1-1.7
			c0.7-0.3,1.5-0.1,2,0.4l41.6,41.6l83.1-83.1c0.7-0.7,1.9-0.7,2.6,0l23.1,23.1c0.3,0.3,0.5,0.8,0.5,1.3c0,0.5-0.2,0.9-0.5,1.3
			L836.6,239.2C836.3,239.5,835.8,239.7,835.4,239.7z M794.3,194.3l41.1,41.1l104.9-104.9L919.7,110L836.6,193
			c-0.7,0.7-1.9,0.7-2.6,0l-39.8-39.8V194.3z"/>
	</g>
</g>
<g>
	<g>
		<path d="M955.6,119.5c-0.5,0-0.9-0.2-1.3-0.5l-23.1-23.1c-0.7-0.7-0.7-1.9,0-2.6l20.5-20.5c0.7-0.7,1.9-0.7,2.6,0l23.1,23.1
			c0.7,0.7,0.7,1.9,0,2.6l-20.5,20.5C956.5,119.3,956.1,119.5,955.6,119.5z M935.1,94.6l20.5,20.5l18-18L953,76.6L935.1,94.6z"/>
	</g>
</g>
<g>
	<path fill="#FFFFFF" d="M475.6,657.2c0-9.2-7.5-16.7-16.7-16.7H150.1c-9.2,0-16.7,7.5-16.7,16.7v14h342.3V657.2z"/>
	<path d="M475.6,672.9H133.4c-1,0-1.8-0.8-1.8-1.8v-14c0-10.2,8.3-18.5,18.5-18.5h308.8c10.2,0,18.5,8.3,18.5,18.5v14
		C477.4,672.1,476.6,672.9,475.6,672.9z M135.2,669.3h338.6v-12.1c0-8.2-6.7-14.9-14.9-14.9H150.1c-8.2,0-14.9,6.7-14.9,14.9V669.3z
		"/>
</g>
<g>
	<path fill="#FFFFFF" d="M98.9,890c0,9.2,7.5,16.7,16.7,16.7h377.8c9.2,0,16.7-7.5,16.7-16.7v-13.9H98.9V890z"/>
	<path d="M493.4,908.5H115.6c-10.2,0-18.5-8.3-18.5-18.5v-13.9c0-1,0.8-1.8,1.8-1.8h411.2c1,0,1.8,0.8,1.8,1.8V890
		C511.9,900.2,503.6,908.5,493.4,908.5z M100.7,877.9V890c0,8.2,6.7,14.9,14.9,14.9h377.8c8.2,0,14.9-6.7,14.9-14.9v-12.1H100.7z"/>
</g>
<g>
	<rect x="133.4" y="671.1" fill="#FFFFFF" width="342.3" height="204.9"/>
	<path d="M475.6,877.9H133.4c-1,0-1.8-0.8-1.8-1.8V671.1c0-1,0.8-1.8,1.8-1.8h342.3c1,0,1.8,0.8,1.8,1.8v204.9
		C477.4,877.1,476.6,877.9,475.6,877.9z M135.2,874.3h338.6V672.9H135.2V874.3z"/>
</g>
<g>
	<g>
		<g>
			<path d="M304.5,848.2c-0.2,0-0.4,0-0.6-0.1c-20.3-6.8-37.5-20.1-51.1-39.5c-0.3-0.5-0.4-1.1-0.2-1.7s0.7-1,1.2-1.1l116.9-31.1
				c0.7-0.2,1.4,0,1.8,0.6c0.5,0.5,0.6,1.2,0.3,1.9c-14.6,36.4-38,61-67.8,71C304.9,848.2,304.7,848.2,304.5,848.2z M257.3,808.6
				c12.7,17.4,28.6,29.5,47.2,35.8c28-9.6,49.4-31.6,63.6-65.3L257.3,808.6z"/>
		</g>
		<g>
			<path d="M232.7,764c-0.8,0-1.5-0.5-1.7-1.3c-7-22.5-8.4-40.7-8.4-40.8c-0.1-0.9,0.5-1.7,1.3-1.9l80.1-21c0.3-0.1,0.6-0.1,0.9,0
				l80.1,21c0.8,0.2,1.4,0.9,1.4,1.8c0,0.8-0.6,1.5-1.3,1.8l-151.9,40.4C233,764,232.9,764,232.7,764z M226.3,723.1
				c0.5,4.6,2.3,19.2,7.6,36.9l143.6-38.2l-73-19.1L226.3,723.1z"/>
		</g>
		<g>
			<path d="M254.3,809.4c-0.6,0-1.1-0.3-1.5-0.8c-9-12.9-16.4-28.3-21.9-45.9c-0.1-0.5-0.1-1,0.1-1.4c0.2-0.4,0.6-0.7,1.1-0.9
				L384.2,720c0.6-0.1,1.2,0,1.6,0.4c0.5,0.4,0.7,0.9,0.6,1.5c0,0.3-2.1,26.6-13.5,55.2c-0.2,0.5-0.7,0.9-1.2,1.1l-116.9,31.1
				C254.7,809.4,254.5,809.4,254.3,809.4z M235,763.4c5.2,16,11.9,30.1,20.1,42l114.8-30.6c8.9-22.6,11.9-43.6,12.7-50.7L235,763.4z
				"/>
		</g>
	</g>
	<g>
		<path d="M242.5,788.3c-0.8,0-1.5-0.5-1.8-1.3c-0.3-1,0.3-2,1.3-2.2l75.4-20.1c1-0.2,2,0.3,2.2,1.3c0.3,1-0.3,2-1.3,2.2L243,788.2
			C242.8,788.3,242.7,788.3,242.5,788.3z"/>
	</g>
</g>
<g>
	<path fill="#FFFFFF" d="M1175.6,744.9V808c0,16-13,29-29,29h-94.7v-17.6l-61.2,35.9l61.2,35.9v-18h94.7c36,0,65.3-29.3,65.3-65.3
		v-63.1H1175.6z"/>
	<path d="M1051.8,893.1c-0.3,0-0.6-0.1-0.9-0.2l-61.2-35.9c-0.6-0.3-0.9-0.9-0.9-1.6s0.3-1.2,0.9-1.6l61.2-35.9
		c0.6-0.3,1.3-0.3,1.8,0c0.6,0.3,0.9,0.9,0.9,1.6v15.8h92.9c15,0,27.2-12.2,27.2-27.2v-63.1c0-1,0.8-1.8,1.8-1.8h36.3
		c1,0,1.8,0.8,1.8,1.8V808c0,37-30.1,67.1-67.1,67.1h-92.9v16.2c0,0.7-0.3,1.3-0.9,1.6C1052.4,893,1052.1,893.1,1051.8,893.1z
		 M994.2,855.4l55.8,32.7v-14.8c0-1,0.8-1.8,1.8-1.8h94.7c35,0,63.5-28.5,63.5-63.5v-61.3h-32.6V808c0,17-13.8,30.8-30.8,30.8h-94.7
		c-1,0-1.8-0.8-1.8-1.8v-14.4L994.2,855.4z"/>
</g>
<g>
	<path d="M202.2,595.1c-4,0-8-0.2-11.9-0.7c-5.6-0.6-11.3-1.8-16.8-3.3c-0.9-0.2-1.4-1.1-1.3-2l3.2-27.9c-3.3-1.3-6.5-2.7-9.4-4.2
		L147,577.7c-0.6,0.7-1.6,0.8-2.3,0.3c-9.6-6.3-18.1-14.1-25.2-23.1c-0.5-0.7-0.5-1.7,0.1-2.3l19-20.7c-1.8-2.8-3.5-5.8-5-8.9
		l-27.5,5.6c-0.9,0.2-1.7-0.3-2.1-1.1c-4.1-10.8-6.4-22.1-6.8-33.5c0-0.9,0.6-1.7,1.5-1.8l27.5-5.6c0.1-1.6,0.2-3.4,0.4-5.1
		c0.2-1.8,0.5-3.5,0.8-5.1l-25.5-11.7c-0.8-0.4-1.2-1.3-1-2.1c3-11,7.8-21.5,14.2-31.1c0.5-0.7,1.5-1,2.3-0.6l25.6,11.7
		c2.2-2.7,4.5-5.3,6.9-7.6l-13.8-24.5c-0.4-0.8-0.2-1.8,0.4-2.3c8.9-7.2,18.9-12.8,29.7-16.8c0.8-0.3,1.8,0,2.2,0.8l13.8,24.4
		c3.2-0.9,6.5-1.5,10.1-2l3.2-27.9c0.1-0.9,0.8-1.6,1.7-1.6c5.7-0.3,11.5-0.1,17.1,0.5c5.6,0.7,11.3,1.8,16.8,3.3
		c0.9,0.2,1.4,1.1,1.3,1.9l-3.2,27.9c3.4,1.3,6.5,2.7,9.4,4.2l18.9-20.6c0.6-0.7,1.6-0.8,2.3-0.3c9.6,6.3,18.1,14.1,25.2,23.1
		c0.5,0.7,0.5,1.7-0.1,2.3l-19,20.7c1.8,2.8,3.5,5.8,5,8.9l27.5-5.6c0.9-0.2,1.7,0.3,2.1,1.1c4.1,10.8,6.4,22.1,6.8,33.5
		c0,0.9-0.6,1.7-1.5,1.8l-27.5,5.6c-0.1,1.6-0.2,3.4-0.4,5.1c-0.2,1.8-0.5,3.5-0.8,5.1l25.5,11.7c0.8,0.4,1.2,1.3,1,2.1
		c-3,11-7.7,21.5-14.2,31.1c-0.5,0.7-1.5,1-2.3,0.6l-25.6-11.7c-2.1,2.7-4.5,5.2-6.9,7.6l13.8,24.5c0.4,0.8,0.2,1.7-0.4,2.3
		c-8.9,7.2-18.9,12.8-29.7,16.8c-0.8,0.3-1.8,0-2.2-0.8l-13.8-24.4c-3.2,0.9-6.6,1.5-10.1,2l-3.2,27.9c-0.1,0.9-0.8,1.6-1.7,1.6
		C205.6,595.1,203.9,595.1,202.2,595.1z M175.9,588c4.9,1.3,9.8,2.2,14.7,2.8c4.9,0.6,10,0.8,15,0.6l3.2-27.8
		c0.1-0.8,0.8-1.5,1.6-1.6c4.4-0.5,8.5-1.3,12.3-2.4c0.8-0.2,1.7,0.1,2.1,0.8l13.7,24.3c9.4-3.6,18.1-8.6,26.1-14.7l-13.8-24.3
		c-0.4-0.7-0.3-1.7,0.4-2.2c3.1-2.8,5.9-5.9,8.4-9.2c0.5-0.7,1.4-0.9,2.2-0.5l25.5,11.6c5.5-8.5,9.7-17.6,12.4-27.2l-25.4-11.6
		c-0.8-0.4-1.2-1.2-1-2c0.4-1.9,0.8-4,1-6.2c0.2-2.2,0.3-4.3,0.4-6.3c0-0.8,0.6-1.6,1.5-1.7l27.4-5.6c-0.5-9.9-2.5-19.8-6-29.3
		l-27.4,5.6c-0.8,0.2-1.7-0.3-2-1c-1.8-3.9-3.8-7.5-6.1-10.9c-0.5-0.7-0.4-1.6,0.2-2.3l18.9-20.6c-6.3-7.8-13.7-14.6-22.1-20.2
		l-18.8,20.5c-0.6,0.6-1.5,0.8-2.2,0.4c-3.4-1.9-7.2-3.7-11.4-5.1c-0.8-0.3-1.3-1.1-1.2-1.9l3.2-27.8c-4.9-1.3-9.8-2.2-14.7-2.8
		c-4.9-0.6-10-0.8-15-0.6l-3.2,27.8c-0.1,0.8-0.8,1.5-1.6,1.6c-4.5,0.5-8.5,1.3-12.3,2.4c-0.8,0.2-1.7-0.1-2.1-0.8l-13.7-24.3
		c-9.4,3.6-18.1,8.6-26.1,14.7l13.8,24.3c0.4,0.7,0.3,1.7-0.4,2.2c-3,2.7-5.8,5.8-8.4,9.2c-0.5,0.7-1.4,0.9-2.2,0.5l-25.5-11.6
		c-5.5,8.5-9.7,17.6-12.4,27.2l25.4,11.6c0.8,0.3,1.2,1.2,1,2c-0.4,1.8-0.8,4-1,6.2c-0.3,2.1-0.3,4.3-0.4,6.3c0,0.8-0.6,1.6-1.5,1.7
		l-27.4,5.6c0.5,10,2.5,19.8,6,29.3l27.4-5.6c0.8-0.2,1.7,0.3,2,1c1.8,3.9,3.8,7.5,6.1,10.9c0.5,0.7,0.4,1.6-0.2,2.3l-18.9,20.6
		c6.3,7.8,13.7,14.6,22.1,20.2l18.8-20.6c0.6-0.6,1.5-0.8,2.2-0.4c3.5,1.9,7.3,3.7,11.4,5.2c0.8,0.3,1.3,1.1,1.2,1.9L175.9,588z
		 M204.5,541c-0.5,0-1-0.2-1.3-0.6c-0.4-0.4-0.5-0.9-0.5-1.4l3-25.9c0.1-0.8,0.6-1.4,1.4-1.6c6.5-1.5,12.1-5.9,15-11.9
		c0.3-0.7,1.1-1.1,1.8-1l25.9,3c0.5,0.1,1,0.3,1.3,0.8c0.3,0.4,0.4,1,0.2,1.5C245.3,525,226.6,540,204.5,541
		C204.5,541,204.5,541,204.5,541z M209.1,514.8l-2.6,22.5c18.8-1.7,34.7-14.4,40.6-32.3l-22.5-2.6
		C221.4,508.4,215.7,512.9,209.1,514.8z M188.8,539.2c-0.2,0-0.3,0-0.5-0.1c-21.2-6-36.1-24.7-37.1-46.7c0-0.5,0.2-1,0.6-1.4
		c0.4-0.4,0.9-0.5,1.4-0.5l25.9,3c0.8,0.1,1.4,0.7,1.6,1.4c1.5,6.5,5.9,12.1,11.9,15c0.7,0.3,1.1,1.1,1,1.8l-3,25.9
		c-0.1,0.5-0.3,1-0.8,1.3C189.5,539.1,189.2,539.2,188.8,539.2z M155,494.4c1.7,18.8,14.4,34.7,32.3,40.7l2.6-22.5
		c-6-3.3-10.5-9-12.4-15.6L155,494.4z M202.2,503.2c-0.5,0-1,0-1.5-0.1c-3.4-0.4-6.5-2.1-8.7-4.7c-0.1-0.1-0.1-0.2-0.2-0.2
		c-0.1-0.1-0.1-0.1-0.2-0.2c-2.1-2.7-3-6.1-2.6-9.5c0.4-3.4,2.1-6.5,4.7-8.7c0.1-0.1,0.2-0.1,0.3-0.2c0.1-0.1,0.1-0.1,0.2-0.2
		c2.7-2.1,6-3,9.5-2.6c3.4,0.4,6.5,2.1,8.7,4.7c0.1,0.1,0.1,0.2,0.2,0.3c0.1,0.1,0.1,0.1,0.2,0.2c2.1,2.7,3,6.1,2.6,9.5
		c-0.4,3.4-2,6.5-4.7,8.7c-0.1,0.1-0.2,0.1-0.3,0.2c-0.1,0.1-0.1,0.1-0.2,0.2C207.8,502.3,205.1,503.2,202.2,503.2z M195.2,496.6
		c1.6,1.6,3.6,2.7,5.9,2.9c2.3,0.3,4.5-0.3,6.4-1.5c0.1-0.3,0.3-0.5,0.5-0.7c0.2-0.2,0.5-0.3,0.8-0.4c1.6-1.6,2.7-3.6,2.9-5.9
		c0.3-2.3-0.3-4.7-1.7-6.6c-0.4-0.3-0.8-0.7-0.9-1.1c-1.6-1.7-3.6-2.7-5.9-3c-2.4-0.3-4.7,0.3-6.6,1.7c-0.3,0.4-0.7,0.8-1.1,0.9
		c-1.7,1.6-2.7,3.6-3,5.9c-0.3,2.2,0.3,4.5,1.5,6.4c0.3,0.1,0.5,0.3,0.7,0.5C195,496,195.2,496.3,195.2,496.6z M251.4,489.5
		c-0.1,0-0.1,0-0.2,0l-25.9-3c-0.8-0.1-1.4-0.6-1.6-1.4c-1.5-6.5-5.9-12.1-11.9-15c-0.7-0.3-1.1-1.1-1-1.8l3-25.9
		c0.1-0.5,0.3-1,0.8-1.3c0.4-0.3,1-0.4,1.5-0.2c21.2,6,36.1,24.7,37.1,46.7c0,0.5-0.2,1-0.6,1.4
		C252.3,489.3,251.8,489.5,251.4,489.5z M226.9,483.1l22.5,2.6c-1.7-18.8-14.4-34.7-32.3-40.6l-2.6,22.5
		C220.5,470.8,225.1,476.5,226.9,483.1z M180.7,481.4c-0.1,0-0.1,0-0.2,0l-25.9-3c-0.5-0.1-1-0.3-1.3-0.8s-0.4-1-0.2-1.5
		c6-21.2,24.7-36.1,46.7-37.1c0.5,0,1,0.2,1.4,0.6c0.4,0.4,0.5,0.9,0.5,1.4l-3,25.9c-0.1,0.8-0.6,1.4-1.4,1.6
		c-6.5,1.5-12.1,5.9-15,11.9C182,481,181.4,481.4,180.7,481.4z M157.2,475.1l22.5,2.6c3.3-6,9-10.5,15.6-12.4l2.6-22.5
		C179,444.5,163.1,457.2,157.2,475.1z"/>
</g>
<g>
	<g>
		<g>
			<path fill="#FFFFFF" d="M266.6,603.8c31.7-10.7,49.4-37.5,59.3-62.1L222,569.3C232.4,584.1,246.7,597.1,266.6,603.8z"/>
			<path d="M266.6,605.6c-0.2,0-0.4,0-0.6-0.1c-18.1-6.1-33.4-17.9-45.5-35.2c-0.3-0.5-0.4-1.1-0.2-1.7s0.7-1,1.2-1.1l103.8-27.6
				c0.7-0.2,1.4,0,1.8,0.6c0.5,0.5,0.6,1.2,0.3,1.9c-13,32.4-33.8,54.3-60.4,63.2C267,605.5,266.8,605.6,266.6,605.6z M225,570.3
				c11.2,15.3,25.2,25.9,41.6,31.5c24.7-8.5,43.5-27.8,56.2-57.5L225,570.3z"/>
		</g>
		<g>
			<path fill="#FFFFFF" d="M266.6,474.4L195.4,493c0,0,1.2,15.9,7.4,35.9L337.7,493L266.6,474.4z"/>
			<path d="M202.8,530.8c-0.8,0-1.5-0.5-1.7-1.3c-6.2-20-7.4-35.7-7.5-36.3c-0.1-0.9,0.5-1.7,1.3-1.9l71.2-18.6
				c0.3-0.1,0.6-0.1,0.9,0l71.2,18.6c0.8,0.2,1.4,0.9,1.4,1.8c0,0.8-0.6,1.5-1.3,1.8l-134.9,35.9C203.1,530.7,203,530.8,202.8,530.8
				z M197.3,494.4c0.4,4.2,2.1,17,6.7,32.4L330.6,493l-64.1-16.8L197.3,494.4z"/>
		</g>
		<g>
			<path fill="#FFFFFF" d="M202.8,529c4,12.8,10.1,27.3,19.2,40.3l103.8-27.6c10.2-25.5,11.9-48.6,11.9-48.6L202.8,529z"/>
			<path d="M222,571.1c-0.6,0-1.1-0.3-1.5-0.8c-8-11.5-14.6-25.2-19.4-40.8c-0.1-0.5-0.1-1,0.1-1.4c0.2-0.4,0.6-0.7,1.1-0.9
				l134.9-35.9c0.6-0.1,1.2,0,1.6,0.4c0.5,0.4,0.7,0.9,0.6,1.5c0,0.2-1.8,23.6-12,49.1c-0.2,0.5-0.7,0.9-1.2,1.1L222.5,571
				C222.3,571.1,222.2,571.1,222,571.1z M205.1,530.2c4.5,14.1,10.5,26.5,17.7,37l101.7-27.1c7.8-19.8,10.4-38.1,11.2-44.6
				L205.1,530.2z"/>
		</g>
	</g>
	<g>
		<path d="M211.5,552.4c-0.8,0-1.5-0.5-1.8-1.3c-0.3-1,0.3-2,1.3-2.2l67-17.8c1-0.3,2,0.3,2.2,1.3c0.3,1-0.3,2-1.3,2.2l-67,17.8
			C211.8,552.3,211.6,552.4,211.5,552.4z"/>
	</g>
</g>
</svg>
